<?xml version="1.0" encoding="UTF-8"?>
<svg id="uuid-59f0fb76-bba5-4aca-af84-9c82019fb7ba" data-name="Layer 2" xmlns="http://www.w3.org/2000/svg" viewBox="0 0 1240.5 332.5">
  <g id="uuid-78e083b6-33e8-4637-ac14-ad7921f08cef" data-name="Layer 2">
    <path d="m1228.21,28.32c16.41-.14,16.39-24.8,0-24.86-16.22.08-16.24,24.7,0,24.86Zm-.09,144.44c6.11,0,10.43-4.55,10.43-11.14V54.97c0-6.59-4.31-11.14-10.43-11.14s-10.43,4.55-10.43,11.14v106.65c0,6.59,4.31,11.14,10.43,11.14Zm-269.11,154.82c118.15,8.38,223.3-7.81,222.69-160.67.52-152.55-104.75-168.85-222.69-160.42-11.38,0-18.62,8-18.62,20.69,0,0,0,279.71,0,279.71,0,12.68,7.24,20.69,18.63,20.69Zm18.9-35.45V41.94c91.46-6.21,167.56,5.67,166.79,125.44.75,118.98-75.77,131.02-166.79,124.76Zm-508.53,40.1c112.21,4.83,150.37-123.55,134.94-203.93,7.6-1.49,15.49-1.32,23.02.5,2.5-10.68,5-21.35,7.51-32.03-12.5-2.67-25.53-2.68-38.03,0-31.39-128.93-224.74-128.12-255.21,1-12.12-.6-30.78,1.78-34.03,15.01-1.37,16.67,13.57,19.82,26.02,19.51-13.14,82.19,26.24,204.63,135.78,199.93Zm0-36.96c-132.19,8.43-131.98-266.59,0-258.07,131.98-8.51,132.18,266.52,0,258.07Zm292.74,36.96c110.75,4.97,149.62-121.05,135.44-200.93,13.05.2,23.43-3.21,23.02-16.51-.16-15.91-16.17-19.26-30.02-16.01C875.02,39.66,826.88.05,762.12.25c-182.97-10.97-183.13,343.06,0,332Zm0-36.96c-132.19,8.43-131.98-266.59,0-258.07,131.98-8.51,132.18,266.52,0,258.07ZM.03,310.25V27.72C.03,12.84,9.74,2.84,24.3,2.84c12.87,0,20.68,6.44,26.58,21.32l98.32,249.21h-2.26L245.05,24.17c8.27-29.75,51.45-28.01,51.06,3.55,0,0,0,282.53,0,282.53,0,11.99-6.75,19.32-17.72,19.32s-17.72-7.33-17.72-19.32V79.47h-1.48l-90.3,227.45c-4.85,11.99-11.82,17.33-22.79,17.33s-18.14-5.33-22.79-16.88L33.01,79.47h2.47v230.78c1.28,25.72-36.73,25.73-35.45,0Z" style="fill: #6667ab;"/>
  </g>
</svg>